<svg xmlns:dc="http://purl.org/dc/elements/1.1/" xmlns:cc="http://creativecommons.org/ns#" xmlns:rdf="http://www.w3.org/1999/02/22-rdf-syntax-ns#" xmlns:svg="http://www.w3.org/2000/svg" xmlns="http://www.w3.org/2000/svg" xmlns:sodipodi="http://sodipodi.sourceforge.net/DTD/sodipodi-0.dtd" xmlns:inkscape="http://www.inkscape.org/namespaces/inkscape" version="1.1" x="0px" y="0px" viewBox="0 0 100 125"><g transform="translate(0,-952.36218)"><path style="font-size:medium;font-style:normal;font-variant:normal;font-weight:normal;font-stretch:normal;text-indent:0;text-align:start;text-decoration:none;line-height:normal;letter-spacing:normal;word-spacing:normal;text-transform:none;direction:ltr;block-progression:tb;writing-mode:lr-tb;text-anchor:start;baseline-shift:baseline;opacity:1;color:#000000;fill:#8C23A9;fill-opacity:1;stroke:none;stroke-width:1.99999964000000000;marker:none;visibility:visible;display:inline;overflow:visible;enable-background:accumulate;font-family:Sans;-inkscape-font-specification:Sans" d="M 22.8125 19 A 1.0000998 1.0000998 0 0 0 22 20 L 22 23 L 20 23 C 17.247299 23 15 25.2473 15 28 L 15 72 C 15 74.7527 17.247299 77 20 77 L 22 77 L 22 80 A 1.0000998 1.0000998 0 0 0 23 81 L 41 81 A 1.0000998 1.0000998 0 0 0 42 80 L 42 77 L 44 77 C 46.752701 77 49 74.7527 49 72 L 49 71 L 84 71 A 1.0000999 1.0000999 0 0 0 85 70 L 85 30 A 1.0000999 1.0000999 0 0 0 84 29 L 72 29 A 1.0000999 1.0000999 0 0 0 71.03125 30.25 L 73.90625 41.75 L 67.25 49.34375 A 1.0000999 1.0000999 0 0 0 67 50.125 L 67.9375 57.125 L 65.125 50.0625 L 70.84375 40.5 A 1.0000999 1.0000999 0 0 0 70.84375 39.5 L 64.84375 29.5 A 1.0000999 1.0000999 0 0 0 64 29 L 49 29 L 49 28 C 49 25.2473 46.752701 23 44 23 L 42 23 L 42 20 A 1.0000998 1.0000998 0 0 0 41 19 L 23 19 A 1.0000998 1.0000998 0 0 0 22.90625 19 A 1.0000998 1.0000998 0 0 0 22.8125 19 z M 24 21 L 40 21 L 40 23 L 24 23 L 24 21 z M 20 25 L 44 25 C 45.679296 25 47 26.3207 47 28 L 47 72 C 47 73.6793 45.679296 75 44 75 L 20 75 C 18.320704 75 17 73.6793 17 72 L 17 28 C 17 26.3207 18.320704 25 20 25 z M 49 31 L 63.46875 31 L 68.84375 40 L 63.15625 49.5 A 1.0000999 1.0000999 0 0 0 63.0625 50.375 L 69.0625 65.375 A 1.0004882 1.0004882 0 1 0 71 64.875 L 69.0625 50.3125 L 75.75 42.65625 A 1.0000999 1.0000999 0 0 0 75.96875 41.75 L 73.28125 31 L 83 31 L 83 69 L 49 69 L 49 31 z M 53 34 C 52.446001 34 52 34.446001 52 35 L 52 37 C 52 37.553999 52.446001 38 53 38 L 55 38 C 55.553999 38 56 37.553999 56 37 L 56 35 C 56 34.446001 55.553999 34 55 34 L 53 34 z M 60 34 C 59.446001 34 59 34.446001 59 35 L 59 37 C 59 37.553999 59.446001 38 60 38 L 62 38 C 62.553999 38 63 37.553999 63 37 L 63 35 C 63 34.446001 62.553999 34 62 34 L 60 34 z M 77 34 C 76.446001 34 76 34.446001 76 35 L 76 37 C 76 37.553999 76.446001 38 77 38 L 79 38 C 79.553999 38 80 37.553999 80 37 L 80 35 C 80 34.446001 79.553999 34 79 34 L 77 34 z M 53 62 C 52.446001 62 52 62.446001 52 63 L 52 65 C 52 65.553999 52.446001 66 53 66 L 55 66 C 55.553999 66 56 65.553999 56 65 L 56 63 C 56 62.446001 55.553999 62 55 62 L 53 62 z M 60 62 C 59.446001 62 59 62.446001 59 63 L 59 65 C 59 65.553999 59.446001 66 60 66 L 62 66 C 62.553999 66 63 65.553999 63 65 L 63 63 C 63 62.446001 62.553999 62 62 62 L 60 62 z M 77 62 C 76.446001 62 76 62.446001 76 63 L 76 65 C 76 65.553999 76.446001 66 77 66 L 79 66 C 79.553999 66 80 65.553999 80 65 L 80 63 C 80 62.446001 79.553999 62 79 62 L 77 62 z M 24 77 L 40 77 L 40 79 L 24 79 L 24 77 z " transform="translate(0,952.36218)"/></g></svg>